<mxfile host="65bd71144e" modified="2021-02-06T18:13:06.014Z" agent="5.0 (Macintosh; Intel Mac OS X 10_16_0) AppleWebKit/537.36 (KHTML, like Gecko) Code/1.51.1 Chrome/83.0.4103.122 Electron/9.3.3 Safari/537.36" etag="RrOjVnAWbXIQVCKm-Amu" version="13.10.0" type="embed">
    <diagram id="741oLpGJw49mab2swYws" name="Page-1">
        <mxGraphModel dx="1186" dy="997" grid="1" gridSize="10" guides="1" tooltips="1" connect="1" arrows="1" fold="1" page="1" pageScale="1" pageWidth="850" pageHeight="1100" math="0" shadow="0">
            <root>
                <mxCell id="0"/>
                <mxCell id="1" parent="0"/>
                <mxCell id="4" value="User" style="swimlane;fontStyle=0;childLayout=stackLayout;horizontal=1;startSize=26;horizontalStack=0;resizeParent=1;resizeParentMax=0;resizeLast=0;collapsible=1;marginBottom=0;align=center;fontSize=14;" parent="1" vertex="1">
                    <mxGeometry x="20" y="590" width="220" height="320" as="geometry"/>
                </mxCell>
                <mxCell id="5" value="FirstName {&#10;  type: string,&#10;  required: true,&#10;}&#10;LastName {&#10;  type: string,&#10;  require: true,&#10;}&#10;email {&#10;  type: string,&#10;  required: true,&#10;}&#10;password {&#10;  type: string,&#10;  required: true,&#10;}&#10;posts [{&#10;  type: mongoose.Types.ObjectId,&#10;  ref: 'Post'&#10;}]&#10;" style="text;strokeColor=none;fillColor=none;spacingLeft=4;spacingRight=4;overflow=hidden;rotatable=0;points=[[0,0.5],[1,0.5]];portConstraint=eastwest;fontSize=12;" parent="4" vertex="1">
                    <mxGeometry y="26" width="220" height="294" as="geometry"/>
                </mxCell>
                <mxCell id="8" value="" style="edgeStyle=entityRelationEdgeStyle;fontSize=12;html=1;endArrow=ERoneToMany;exitX=0;exitY=0;exitDx=0;exitDy=0;entryX=-0.016;entryY=0.959;entryDx=0;entryDy=0;entryPerimeter=0;" parent="1" source="4" edge="1" target="10">
                    <mxGeometry width="100" height="100" relative="1" as="geometry">
                        <mxPoint x="220" y="320" as="sourcePoint"/>
                        <mxPoint x="160" y="460" as="targetPoint"/>
                    </mxGeometry>
                </mxCell>
                <mxCell id="9" value="Post" style="swimlane;fontStyle=0;childLayout=stackLayout;horizontal=1;startSize=26;horizontalStack=0;resizeParent=1;resizeParentMax=0;resizeLast=0;collapsible=1;marginBottom=0;align=center;fontSize=14;" parent="1" vertex="1">
                    <mxGeometry x="210" y="120" width="190" height="320" as="geometry"/>
                </mxCell>
                <mxCell id="10" value="img: {&#10;  type: String,&#10;  required: true,&#10;},&#10;img: {&#10;  type: String,&#10;  required: true,&#10;},&#10;caption: {&#10;  type: String,&#10;  required: true,&#10;},&#10;comments: [{&#10;  type: mongoose.Types.ObjectId,&#10;  ref: &quot;Post&quot;,&#10;}],&#10;likes: [{&#10;  type: mongoose.Types.ObjectId,&#10;  ref: &quot;Like&quot;,&#10;}]&#10;" style="text;strokeColor=none;fillColor=none;spacingLeft=4;spacingRight=4;overflow=hidden;rotatable=0;points=[[0,0.5],[1,0.5]];portConstraint=eastwest;fontSize=12;" parent="9" vertex="1">
                    <mxGeometry y="26" width="190" height="294" as="geometry"/>
                </mxCell>
                <mxCell id="13" value="" style="edgeStyle=entityRelationEdgeStyle;fontSize=12;html=1;endArrow=ERoneToMany;exitX=1.011;exitY=0.078;exitDx=0;exitDy=0;exitPerimeter=0;" parent="1" edge="1" source="10">
                    <mxGeometry width="100" height="100" relative="1" as="geometry">
                        <mxPoint x="470" y="180" as="sourcePoint"/>
                        <mxPoint x="570" y="420" as="targetPoint"/>
                    </mxGeometry>
                </mxCell>
                <mxCell id="18" value="" style="edgeStyle=entityRelationEdgeStyle;fontSize=12;html=1;endArrow=ERoneToMany;exitX=1.005;exitY=0.639;exitDx=0;exitDy=0;exitPerimeter=0;entryX=-0.021;entryY=0.717;entryDx=0;entryDy=0;entryPerimeter=0;" parent="1" source="5" target="32" edge="1">
                    <mxGeometry width="100" height="100" relative="1" as="geometry">
                        <mxPoint x="220" y="510" as="sourcePoint"/>
                        <mxPoint x="570" y="580" as="targetPoint"/>
                    </mxGeometry>
                </mxCell>
                <mxCell id="27" value="Comment" style="swimlane;fontStyle=0;childLayout=stackLayout;horizontal=1;startSize=26;horizontalStack=0;resizeParent=1;resizeParentMax=0;resizeLast=0;collapsible=1;marginBottom=0;align=center;fontSize=14;" vertex="1" parent="1">
                    <mxGeometry x="570" y="380" width="200" height="210" as="geometry"/>
                </mxCell>
                <mxCell id="28" value="user: {&#10;  type: mongoose.Types.ObjectId,&#10;  ref: &quot;User&quot;,&#10;},&#10;posts: {&#10;  type: mongoose.Types.ObjectId,&#10;  ref: &quot;Post&quot;,&#10;},&#10;content: {&#10;  type: String,&#10;  required: true,&#10;}," style="text;strokeColor=none;fillColor=none;spacingLeft=4;spacingRight=4;overflow=hidden;rotatable=0;points=[[0,0.5],[1,0.5]];portConstraint=eastwest;fontSize=12;" vertex="1" parent="27">
                    <mxGeometry y="26" width="200" height="184" as="geometry"/>
                </mxCell>
                <mxCell id="31" value="Like" style="swimlane;fontStyle=0;childLayout=stackLayout;horizontal=1;startSize=26;horizontalStack=0;resizeParent=1;resizeParentMax=0;resizeLast=0;collapsible=1;marginBottom=0;align=center;fontSize=14;" vertex="1" parent="1">
                    <mxGeometry x="550" y="708" width="220" height="210" as="geometry"/>
                </mxCell>
                <mxCell id="32" value="user: {&#10;  type: mongoose.Types.ObjectId,&#10;  ref: &quot;User&quot;,&#10;},&#10;posts: {&#10;  type: mongoose.Types.ObjectId,&#10;  ref: &quot;Post&quot;,&#10;},&#10;comments: {&#10;  type: mongoose.Types.OjbectId,&#10;  ref: &quot;Comment,&#10;},&#10;" style="text;strokeColor=none;fillColor=none;spacingLeft=4;spacingRight=4;overflow=hidden;rotatable=0;points=[[0,0.5],[1,0.5]];portConstraint=eastwest;fontSize=12;" vertex="1" parent="31">
                    <mxGeometry y="26" width="220" height="184" as="geometry"/>
                </mxCell>
                <mxCell id="35" value="" style="edgeStyle=entityRelationEdgeStyle;fontSize=12;html=1;endArrow=ERoneToMany;exitX=0.653;exitY=1.015;exitDx=0;exitDy=0;exitPerimeter=0;entryX=-0.014;entryY=0.305;entryDx=0;entryDy=0;entryPerimeter=0;" edge="1" parent="1" source="10" target="32">
                    <mxGeometry width="100" height="100" relative="1" as="geometry">
                        <mxPoint x="390" y="670" as="sourcePoint"/>
                        <mxPoint x="490" y="570" as="targetPoint"/>
                    </mxGeometry>
                </mxCell>
                <mxCell id="36" value="" style="edgeStyle=entityRelationEdgeStyle;fontSize=12;html=1;endArrow=ERoneToMany;exitX=0.427;exitY=1.016;exitDx=0;exitDy=0;exitPerimeter=0;entryX=0.5;entryY=0;entryDx=0;entryDy=0;" edge="1" parent="1" source="28" target="31">
                    <mxGeometry width="100" height="100" relative="1" as="geometry">
                        <mxPoint x="480" y="700" as="sourcePoint"/>
                        <mxPoint x="580" y="600" as="targetPoint"/>
                    </mxGeometry>
                </mxCell>
            </root>
        </mxGraphModel>
    </diagram>
</mxfile>